<?xml version="1.0" encoding="UTF-8"?>
<!DOCTYPE svg PUBLIC "-//W3C//DTD SVG 1.1//EN" "http://www.w3.org/Graphics/SVG/1.1/DTD/svg11.dtd">
<svg xmlns="http://www.w3.org/2000/svg" version="1.1" width="608px" height="597px" style="shape-rendering:geometricPrecision; text-rendering:geometricPrecision; image-rendering:optimizeQuality; fill-rule:evenodd; clip-rule:evenodd" xmlns:xlink="http://www.w3.org/1999/xlink">
<g><path style="opacity:1" fill="#ffffff" d="M 213.5,95.5 C 207.833,94.1667 202.167,94.1667 196.5,95.5C 183.472,96.6962 176.805,103.863 176.5,117C 176.52,123.372 179.187,128.372 184.5,132C 187.339,133.92 190.339,135.587 193.5,137C 207.844,142.003 222.178,147.003 236.5,152C 267.033,164.222 280.2,186.722 276,219.5C 270.616,250.215 253.116,270.382 223.5,280C 183.987,288.539 148.987,279.705 118.5,253.5C 123.667,245.167 128.833,236.833 134,228.5C 139.497,222 145.997,220.833 153.5,225C 161.703,230.538 170.369,235.204 179.5,239C 191.62,242.575 203.62,242.242 215.5,238C 223.841,232.486 227.841,224.652 227.5,214.5C 226.491,205.978 222.158,199.811 214.5,196C 195.726,189.835 177.059,183.169 158.5,176C 133.168,161.078 123.001,138.911 128,109.5C 135.431,78.4054 154.931,59.9054 186.5,54C 213.42,50.0423 238.754,54.7089 262.5,68C 266.458,70.234 269.958,73.0673 273,76.5C 269.6,84.6332 265.6,92.6332 261,100.5C 257.551,107.474 252.051,109.974 244.5,108C 238.992,104.745 233.325,101.745 227.5,99C 223.104,96.7005 218.438,95.5339 213.5,95.5 Z"/></g>
<g><path style="opacity:1" fill="#ffffff" d="M 40.5,55.5 C 58.1667,55.5 75.8333,55.5 93.5,55.5C 93.5,130.5 93.5,205.5 93.5,280.5C 75.8333,280.5 58.1667,280.5 40.5,280.5C 40.5,205.5 40.5,130.5 40.5,55.5 Z"/></g>
<g><path style="opacity:1" fill="#ffffff" d="M 203.5,392.5 C 213.833,392.5 224.167,392.5 234.5,392.5C 234.5,394.167 234.5,395.833 234.5,397.5C 234.323,414.906 230.823,431.572 224,447.5C 220.422,454.991 216.588,462.324 212.5,469.5C 227.15,486.483 242.484,502.817 258.5,518.5C 242.342,519.496 226.009,519.83 209.5,519.5C 205.59,519.737 201.923,518.904 198.5,517C 192.655,511.82 186.822,506.654 181,501.5C 154.172,518.776 125.005,524.943 93.5,520C 69.7326,513.71 53.2326,499.21 44,476.5C 36.0697,447.824 43.5697,423.99 66.5,405C 72.2037,401.154 77.8703,397.32 83.5,393.5C 68.7979,370.932 66.6312,347.265 77,322.5C 86.8937,306.627 101.06,296.793 119.5,293C 142.244,289.116 162.91,293.783 181.5,307C 192.172,316.845 198.172,329.011 199.5,343.5C 190.167,345.266 180.834,347.1 171.5,349C 168.167,349.667 164.833,349.667 161.5,349C 157.94,344.437 154.773,339.604 152,334.5C 145.894,327.908 138.394,325.742 129.5,328C 116.534,334.104 111.701,344.27 115,358.5C 117.533,367.238 121.867,374.905 128,381.5C 147.365,401.197 166.365,421.197 185,441.5C 191.011,427.445 194.678,412.778 196,397.5C 197.41,394.211 199.91,392.544 203.5,392.5 Z"/></g>
<g><path style="opacity:1" fill="#ffffff" d="M 332.5,294.5 C 332.5,369.5 332.5,444.5 332.5,519.5C 315.167,519.5 297.833,519.5 280.5,519.5C 280.5,444.5 280.5,369.5 280.5,294.5C 297.833,294.5 315.167,294.5 332.5,294.5 Z"/></g>
<g><path style="opacity:1" fill="#ffffff" d="M 538.5,294.5 C 538.5,308.167 538.5,321.833 538.5,335.5C 517.5,335.5 496.5,335.5 475.5,335.5C 474.501,396.664 474.168,457.998 474.5,519.5C 457.167,519.5 439.833,519.5 422.5,519.5C 422.5,458.5 422.5,397.5 422.5,336.5C 401.673,335.503 380.673,335.169 359.5,335.5C 359.5,321.833 359.5,308.167 359.5,294.5C 419.167,294.5 478.833,294.5 538.5,294.5 Z"/></g>
<g><path style="opacity:1" fill="#095DE4" d="M 104.5,419.5 C 121.435,437.605 138.602,455.605 156,473.5C 156.688,474.332 156.521,474.998 155.5,475.5C 140.04,484.958 123.706,487.125 106.5,482C 97.2018,477.357 91.7018,469.857 90,459.5C 87.8177,443.541 92.651,430.208 104.5,419.5 Z"/></g>
</svg>
