<svg width="25" height="24" fill="none" xmlns="http://www.w3.org/2000/svg"><path d="M17.5 13.4v3c0 4-1.6 5.6-5.6 5.6H8.1c-4 0-5.6-1.6-5.6-5.6v-3.8c0-4 1.6-5.6 5.6-5.6h3" stroke="#fff" stroke-width="1.5" stroke-linecap="round" stroke-linejoin="round"/><path d="M17.5 13.4h-3.2c-2.4 0-3.2-.8-3.2-3.2V7l6.4 6.4ZM12.1 2h4M7.5 5c0-1.66 1.34-3 3-3h2.62m9.38 6v6.19c0 1.55-1.26 2.81-2.81 2.81m2.81-9h-3c-2.25 0-3-.75-3-3V2l6 6Z" stroke="#fff" stroke-width="1.5" stroke-linecap="round" stroke-linejoin="round"/></svg>