<?xml version="1.0" encoding="UTF-8"?>
<!DOCTYPE svg PUBLIC "-//W3C//DTD SVG 1.1//EN" "http://www.w3.org/Graphics/SVG/1.1/DTD/svg11.dtd">
<svg xmlns="http://www.w3.org/2000/svg" version="1.1" width="608px" height="597px" style="shape-rendering:geometricPrecision; text-rendering:geometricPrecision; image-rendering:optimizeQuality; fill-rule:evenodd; clip-rule:evenodd" xmlns:xlink="http://www.w3.org/1999/xlink">
<g><path style="opacity:1" fill="#095DE4" d="M 569.5,52.5 C 568.791,53.404 567.791,53.7373 566.5,53.5C 566.5,218.833 566.5,384.167 566.5,549.5C 381.764,549.168 197.097,549.501 12.5,550.5C 11.1669,375.098 11.1669,199.598 12.5,24C 197.167,23.3333 381.833,23.3333 566.5,24C 566.576,33.3498 566.576,42.8498 566.5,52.5C 567.5,52.5 568.5,52.5 569.5,52.5 Z M 198.5,52.5 C 220.885,52.1796 241.885,57.3463 261.5,68C 265.929,70.2614 269.596,73.428 272.5,77.5C 268.427,84.6444 264.593,91.9777 261,99.5C 259.188,102.28 257.021,104.78 254.5,107C 251.167,107.667 247.833,107.667 244.5,107C 234.977,101.572 224.977,97.2384 214.5,94C 204.871,92.6623 195.538,93.6623 186.5,97C 175.77,104.684 173.104,114.517 178.5,126.5C 180.688,129.522 183.355,132.022 186.5,134C 200.12,139.985 214.12,144.985 228.5,149C 268.363,162.881 283.196,190.381 273,231.5C 264.462,255.037 248.295,270.871 224.5,279C 190.36,286.612 158.693,280.945 129.5,262C 125.868,259.37 122.535,256.37 119.5,253C 124.279,244.613 129.446,236.446 135,228.5C 138.845,223.997 143.678,222.497 149.5,224C 158.135,228.652 166.802,233.319 175.5,238C 189.206,243.82 202.873,243.82 216.5,238C 224.347,232.677 228.347,225.177 228.5,215.5C 227.923,209.515 225.59,204.348 221.5,200C 218.003,197.417 214.336,195.084 210.5,193C 196.86,188.676 183.193,184.343 169.5,180C 141.921,170.076 127.921,150.409 127.5,121C 128.863,91.3089 143.196,70.6422 170.5,59C 179.803,56.1101 189.137,53.9435 198.5,52.5 Z M 41.5,55.5 C 58.5,55.5 75.5,55.5 92.5,55.5C 92.5,130.5 92.5,205.5 92.5,280.5C 75.2648,279.523 58.0981,279.189 41,279.5C 40.1701,204.763 40.3368,130.097 41.5,55.5 Z M 126.5,292.5 C 149.661,289.72 169.494,296.386 186,312.5C 192.918,321.745 197.418,332.078 199.5,343.5C 187.487,345.538 175.487,347.371 163.5,349C 158.923,345.039 155.423,340.206 153,334.5C 145.228,326.179 136.061,324.346 125.5,329C 117.899,333.862 113.899,340.862 113.5,350C 114.152,359.795 117.318,368.629 123,376.5C 142.389,397.219 161.723,417.886 181,438.5C 182.264,440.607 184.097,441.607 186.5,441.5C 191.281,426.435 195.114,411.102 198,395.5C 198.903,394.299 200.069,393.465 201.5,393C 212.495,392.5 223.495,392.333 234.5,392.5C 234.679,420.619 227.013,446.286 211.5,469.5C 225.977,486.144 240.977,502.311 256.5,518C 239.167,518.667 221.833,518.667 204.5,518C 201.624,517.562 198.957,516.562 196.5,515C 191.623,509.787 186.456,504.954 181,500.5C 154.551,517.653 125.718,523.82 94.5,519C 61.9122,510.245 43.9122,489.078 40.5,455.5C 42.1876,435.29 50.8543,418.79 66.5,406C 72.1857,401.493 78.1857,397.493 84.5,394C 72.0069,375.55 68.1736,355.384 73,333.5C 82.6205,309.039 100.454,295.372 126.5,292.5 Z M 331.5,294.5 C 332.497,369.096 332.83,443.762 332.5,518.5C 315.5,518.5 298.5,518.5 281.5,518.5C 281.5,443.833 281.5,369.167 281.5,294.5C 298.167,294.5 314.833,294.5 331.5,294.5 Z M 475.5,335.5 C 474.83,396.402 474.163,457.402 473.5,518.5C 456.833,518.5 440.167,518.5 423.5,518.5C 423.667,457.499 423.5,396.499 423,335.5C 402.242,334.507 381.409,334.173 360.5,334.5C 359.262,321.163 359.262,307.829 360.5,294.5C 419.5,294.5 478.5,294.5 537.5,294.5C 537.5,307.833 537.5,321.167 537.5,334.5C 516.66,334.169 495.993,334.503 475.5,335.5 Z"/></g>
<g><path style="opacity:1" fill="#7cbaff" d="M 569.5,52.5 C 578.085,52.1834 586.585,52.5168 595,53.5C 595.833,228.736 595.666,403.903 594.5,579C 410.167,579.667 225.833,579.667 41.5,579C 40.5155,569.917 40.1822,560.751 40.5,551.5C 215.833,550.833 391.167,550.167 566.5,549.5C 566.5,384.167 566.5,218.833 566.5,53.5C 567.791,53.7373 568.791,53.404 569.5,52.5 Z"/></g>
<g><path style="opacity:0.891" fill="#095DE4" d="M 92.5,280.5 C 92.5,205.5 92.5,130.5 92.5,55.5C 75.5,55.5 58.5,55.5 41.5,55.5C 58.3324,54.1725 75.8324,54.1725 94,55.5C 94.1667,93 94.3333,130.5 94.5,168C 94.4999,205.839 93.8332,243.339 92.5,280.5 Z"/></g>
<g><path style="opacity:0.999" fill="#095DE4" d="M 103.5,419.5 C 104.552,419.351 105.552,419.517 106.5,420C 122.912,438.083 139.745,455.916 157,473.5C 157.688,474.332 157.521,474.998 156.5,475.5C 138.881,486.746 120.548,488.246 101.5,480C 92.7558,472.789 88.4225,463.456 88.5,452C 89.0608,439.049 94.0608,428.216 103.5,419.5 Z"/></g>
<g><path style="opacity:0.619" fill="#095DE4" d="M 475.5,335.5 C 475.667,396.834 475.5,458.168 475,519.5C 474.617,518.944 474.117,518.611 473.5,518.5C 474.163,457.402 474.83,396.402 475.5,335.5 Z"/></g>
<g><path style="opacity:0.691" fill="#095DE4" d="M 331.5,294.5 C 332.833,331.661 333.5,369.161 333.5,407C 333.503,444.904 333.17,482.071 332.5,518.5C 332.83,443.762 332.497,369.096 331.5,294.5 Z"/></g>
<g><path style="opacity:1" fill="#095DE4" d="M 566.5,549.5 C 391.167,550.167 215.833,550.833 40.5,551.5C 30.985,551.827 21.6517,551.494 12.5,550.5C 197.097,549.501 381.764,549.168 566.5,549.5 Z"/></g>
</svg>
