<svg xmlns="http://www.w3.org/2000/svg" width="608" height="597" style="shape-rendering:geometricPrecision;text-rendering:geometricPrecision;image-rendering:optimizeQuality;fill-rule:evenodd;clip-rule:evenodd"><path style="opacity:1" fill="#fff" d="M213.5 95.5c-5.667-1.333-11.333-1.333-17 0-13.028 1.196-19.695 8.363-20 21.5.02 6.372 2.687 11.372 8 15a59.043 59.043 0 0 0 9 5 437279.7 437279.7 0 0 1 43 15c30.533 12.222 43.7 34.722 39.5 67.5-5.384 30.715-22.884 50.882-52.5 60.5-39.513 8.539-74.513-.295-105-26.5l15.5-25c5.497-6.5 11.997-7.667 19.5-3.5a147.637 147.637 0 0 0 26 14c12.12 3.575 24.12 3.242 36-1 8.341-5.514 12.341-13.348 12-23.5-1.009-8.522-5.342-14.689-13-18.5a1158.217 1158.217 0 0 1-56-20c-25.332-14.922-35.499-37.089-30.5-66.5 7.431-31.095 26.931-49.595 58.5-55.5 26.92-3.958 52.254.709 76 14a40.622 40.622 0 0 1 10.5 8.5c-3.4 8.133-7.4 16.133-12 24-3.449 6.974-8.949 9.474-16.5 7.5a205.993 205.993 0 0 0-17-9c-4.396-2.3-9.062-3.466-14-3.5Zm-173-40h53v225h-53v-225Zm163 337h31v5c-.177 17.406-3.677 34.072-10.5 50a343.675 343.675 0 0 1-11.5 22 798.827 798.827 0 0 0 46 49 600.937 600.937 0 0 1-49 1c-3.91.237-7.577-.596-11-2.5-5.845-5.18-11.678-10.346-17.5-15.5-26.828 17.276-55.995 23.443-87.5 18.5-23.767-6.29-40.267-20.79-49.5-43.5-7.93-28.676-.43-52.51 22.5-71.5 5.704-3.846 11.37-7.68 17-11.5-14.702-22.568-16.869-46.235-6.5-71 9.894-15.873 24.06-25.707 42.5-29.5 22.744-3.884 43.41.783 62 14 10.672 9.845 16.672 22.011 18 36.5-9.333 1.766-18.666 3.6-28 5.5a25.238 25.238 0 0 1-10 0 105.09 105.09 0 0 1-9.5-14.5c-6.106-6.592-13.606-8.758-22.5-6.5-12.966 6.104-17.799 16.27-14.5 30.5 2.533 8.738 6.867 16.405 13 23a2411.885 2411.885 0 0 1 57 60c6.011-14.055 9.678-28.722 11-44 1.41-3.289 3.91-4.956 7.5-5Zm129-98v225h-52v-225h52Zm206 0v41h-63a8467.762 8467.762 0 0 0-1 184h-52v-183a992.742 992.742 0 0 0-63-1v-41h179Z"/><path style="opacity:1" fill="#095DE4" d="M104.5 419.5a3867.02 3867.02 0 0 0 51.5 54c.688.832.521 1.498-.5 2-15.46 9.458-31.794 11.625-49 6.5-9.298-4.643-14.798-12.143-16.5-22.5-2.182-15.959 2.651-29.292 14.5-40Z"/></svg>