<svg xmlns="http://www.w3.org/2000/svg" width="608" height="597" style="shape-rendering:geometricPrecision;text-rendering:geometricPrecision;image-rendering:optimizeQuality;fill-rule:evenodd;clip-rule:evenodd"><path style="opacity:1" fill="#095DE4" d="M569.5 52.5c-.709.904-1.709 1.237-3 1v496c-184.736-.332-369.403.001-554 1a34656.843 34656.843 0 0 1 0-526.5c184.667-.667 369.333-.667 554 0 .076 9.35.076 18.85 0 28.5h3Zm-371 0c22.385-.32 43.385 4.846 63 15.5 4.429 2.261 8.096 5.428 11 9.5a342.212 342.212 0 0 0-11.5 22 36.548 36.548 0 0 1-6.5 7.5 25.238 25.238 0 0 1-10 0 149.641 149.641 0 0 0-30-13c-9.629-1.338-18.962-.338-28 3-10.73 7.684-13.396 17.517-8 29.5a28.57 28.57 0 0 0 8 7.5 314.487 314.487 0 0 0 42 15c39.863 13.881 54.696 41.381 44.5 82.5-8.538 23.537-24.705 39.371-48.5 47.5-34.14 7.612-65.807 1.945-95-17a63.726 63.726 0 0 1-10-9 314.709 314.709 0 0 1 15.5-24.5c3.845-4.503 8.678-6.003 14.5-4.5 8.635 4.652 17.302 9.319 26 14 13.706 5.82 27.373 5.82 41 0 7.847-5.323 11.847-12.823 12-22.5-.577-5.985-2.91-11.152-7-15.5a94.09 94.09 0 0 0-11-7c-13.64-4.324-27.307-8.657-41-13-27.579-9.924-41.579-29.591-42-59 1.363-29.691 15.696-50.358 43-62 9.303-2.89 18.637-5.056 28-6.5Zm-157 3h51v225a688.448 688.448 0 0 0-51.5-1c-.83-74.737-.663-149.403.5-224Zm85 237c23.161-2.78 42.994 3.886 59.5 20 6.918 9.245 11.418 19.578 13.5 31a1104.225 1104.225 0 0 1-36 5.5c-4.577-3.961-8.077-8.794-10.5-14.5-7.772-8.321-16.939-10.154-27.5-5.5-7.601 4.862-11.601 11.862-12 21 .652 9.795 3.818 18.629 9.5 26.5 19.389 20.719 38.723 41.386 58 62 1.264 2.107 3.097 3.107 5.5 3a381.042 381.042 0 0 0 11.5-46 6.978 6.978 0 0 1 3.5-2.5c10.995-.5 21.995-.667 33-.5.179 28.119-7.487 53.786-23 77a1030.446 1030.446 0 0 0 45 48.5 675.912 675.912 0 0 1-52 0 20.51 20.51 0 0 1-8-3 158.276 158.276 0 0 0-15.5-14.5c-26.449 17.153-55.282 23.32-86.5 18.5-32.588-8.755-50.588-29.922-54-63.5 1.688-20.21 10.354-36.71 26-49.5a131.054 131.054 0 0 1 18-12c-12.493-18.45-16.326-38.616-11.5-60.5 9.62-24.461 27.454-38.128 53.5-41Zm205 2c.997 74.596 1.33 149.262 1 224h-51v-224h50Zm144 41c-.67 60.902-1.337 121.902-2 183h-50c.167-61.001 0-122.001-.5-183a985.248 985.248 0 0 0-62.5-1 215.865 215.865 0 0 1 0-40h177v40a961.42 961.42 0 0 0-62 1Z"/><path style="opacity:1" fill="#7cbaff" d="M569.5 52.5c8.585-.317 17.085.017 25.5 1 .833 175.236.666 350.403-.5 525.5-184.333.667-368.667.667-553 0a193.29 193.29 0 0 1-1-27.5l526-2v-496c1.291.237 2.291-.096 3-1Z"/><path style="opacity:.891" fill="#095DE4" d="M92.5 280.5v-225h-51c16.832-1.328 34.332-1.328 52.5 0l.5 112.5c0 37.839-.667 75.339-2 112.5Z"/><path style="opacity:.999" fill="#095DE4" d="M103.5 419.5a4.934 4.934 0 0 1 3 .5 1888.25 1888.25 0 0 0 50.5 53.5c.688.832.521 1.498-.5 2-17.619 11.246-35.952 12.746-55 4.5-8.744-7.211-13.078-16.544-13-28 .56-12.951 5.56-23.784 15-32.5Z"/><path style="opacity:.619" fill="#095DE4" d="M475.5 335.5c.167 61.334 0 122.668-.5 184-.383-.556-.883-.889-1.5-1 .663-61.098 1.33-122.098 2-183Z"/><path style="opacity:.691" fill="#095DE4" d="M331.5 294.5c1.333 37.161 2 74.661 2 112.5.003 37.904-.33 75.071-1 111.5.33-74.738-.003-149.404-1-224Z"/><path style="opacity:1" fill="#095DE4" d="m566.5 549.5-526 2c-9.515.327-18.848-.006-28-1a76849.647 76849.647 0 0 1 554-1Z"/></svg>